<mxfile host="app.diagrams.net" agent="Mozilla/5.0 (X11; Ubuntu; Linux x86_64; rv:130.0) Gecko/20100101 Firefox/130.0" version="24.8.0">
  <diagram name="Page-1" id="by5CuEt5DQ2uRvEvPGLT">
    <mxGraphModel dx="880" dy="448" grid="1" gridSize="10" guides="1" tooltips="1" connect="1" arrows="1" fold="1" page="1" pageScale="1" pageWidth="850" pageHeight="1100" math="0" shadow="0">
      <root>
        <mxCell id="0" />
        <mxCell id="1" parent="0" />
        <mxCell id="x86Q3FWgldTjahKJCCAu-19" style="edgeStyle=orthogonalEdgeStyle;rounded=0;orthogonalLoop=1;jettySize=auto;html=1;entryX=0.5;entryY=1;entryDx=0;entryDy=0;" parent="1" source="x86Q3FWgldTjahKJCCAu-1" target="x86Q3FWgldTjahKJCCAu-18" edge="1">
          <mxGeometry relative="1" as="geometry" />
        </mxCell>
        <mxCell id="x86Q3FWgldTjahKJCCAu-26" style="edgeStyle=orthogonalEdgeStyle;rounded=0;orthogonalLoop=1;jettySize=auto;html=1;entryX=1;entryY=0.5;entryDx=0;entryDy=0;" parent="1" source="x86Q3FWgldTjahKJCCAu-1" target="x86Q3FWgldTjahKJCCAu-25" edge="1">
          <mxGeometry relative="1" as="geometry">
            <Array as="points">
              <mxPoint x="400" y="640" />
            </Array>
          </mxGeometry>
        </mxCell>
        <mxCell id="x86Q3FWgldTjahKJCCAu-38" style="edgeStyle=orthogonalEdgeStyle;rounded=0;orthogonalLoop=1;jettySize=auto;html=1;entryX=0;entryY=0.5;entryDx=0;entryDy=0;" parent="1" source="x86Q3FWgldTjahKJCCAu-1" target="x86Q3FWgldTjahKJCCAu-36" edge="1">
          <mxGeometry relative="1" as="geometry">
            <Array as="points">
              <mxPoint x="490" y="620" />
            </Array>
          </mxGeometry>
        </mxCell>
        <mxCell id="x86Q3FWgldTjahKJCCAu-44" style="edgeStyle=orthogonalEdgeStyle;rounded=0;orthogonalLoop=1;jettySize=auto;html=1;" parent="1" source="x86Q3FWgldTjahKJCCAu-1" target="x86Q3FWgldTjahKJCCAu-41" edge="1">
          <mxGeometry relative="1" as="geometry">
            <Array as="points">
              <mxPoint x="310" y="590" />
              <mxPoint x="310" y="560" />
            </Array>
          </mxGeometry>
        </mxCell>
        <mxCell id="x86Q3FWgldTjahKJCCAu-1" value="&lt;div style=&quot;font-size: 48px;&quot;&gt;&lt;font style=&quot;font-size: 24px;&quot;&gt;Kafka&lt;/font&gt;&lt;/div&gt;" style="rounded=1;whiteSpace=wrap;html=1;" parent="1" vertex="1">
          <mxGeometry x="390" y="550" width="120" height="60" as="geometry" />
        </mxCell>
        <mxCell id="x86Q3FWgldTjahKJCCAu-7" style="edgeStyle=orthogonalEdgeStyle;rounded=0;orthogonalLoop=1;jettySize=auto;html=1;" parent="1" source="x86Q3FWgldTjahKJCCAu-3" target="x86Q3FWgldTjahKJCCAu-6" edge="1">
          <mxGeometry relative="1" as="geometry" />
        </mxCell>
        <mxCell id="x86Q3FWgldTjahKJCCAu-3" value="Se compra un producto" style="rhombus;whiteSpace=wrap;html=1;" parent="1" vertex="1">
          <mxGeometry x="180" y="160" width="80" height="80" as="geometry" />
        </mxCell>
        <mxCell id="x86Q3FWgldTjahKJCCAu-15" style="edgeStyle=orthogonalEdgeStyle;rounded=0;orthogonalLoop=1;jettySize=auto;html=1;entryX=0.5;entryY=0;entryDx=0;entryDy=0;" parent="1" source="x86Q3FWgldTjahKJCCAu-6" target="x86Q3FWgldTjahKJCCAu-10" edge="1">
          <mxGeometry relative="1" as="geometry" />
        </mxCell>
        <mxCell id="x86Q3FWgldTjahKJCCAu-6" value="&lt;div&gt;CLIENTE GRPC&lt;/div&gt;" style="rounded=1;whiteSpace=wrap;html=1;" parent="1" vertex="1">
          <mxGeometry x="160" y="260" width="120" height="60" as="geometry" />
        </mxCell>
        <mxCell id="x86Q3FWgldTjahKJCCAu-17" style="edgeStyle=orthogonalEdgeStyle;rounded=0;orthogonalLoop=1;jettySize=auto;html=1;entryX=0;entryY=0.5;entryDx=0;entryDy=0;" parent="1" source="x86Q3FWgldTjahKJCCAu-8" target="x86Q3FWgldTjahKJCCAu-1" edge="1">
          <mxGeometry relative="1" as="geometry" />
        </mxCell>
        <mxCell id="x86Q3FWgldTjahKJCCAu-8" value="&lt;div&gt;SERVIDOR GRPC: Gestión de pedidos&lt;br&gt;&lt;/div&gt;" style="rounded=1;whiteSpace=wrap;html=1;" parent="1" vertex="1">
          <mxGeometry x="160" y="450" width="120" height="60" as="geometry" />
        </mxCell>
        <mxCell id="x86Q3FWgldTjahKJCCAu-16" style="edgeStyle=orthogonalEdgeStyle;rounded=0;orthogonalLoop=1;jettySize=auto;html=1;entryX=0.5;entryY=0;entryDx=0;entryDy=0;" parent="1" source="x86Q3FWgldTjahKJCCAu-10" target="x86Q3FWgldTjahKJCCAu-8" edge="1">
          <mxGeometry relative="1" as="geometry" />
        </mxCell>
        <mxCell id="x86Q3FWgldTjahKJCCAu-10" value="Información compra y creación cliente" style="rhombus;whiteSpace=wrap;html=1;" parent="1" vertex="1">
          <mxGeometry x="180" y="350" width="80" height="80" as="geometry" />
        </mxCell>
        <mxCell id="x86Q3FWgldTjahKJCCAu-21" style="edgeStyle=orthogonalEdgeStyle;rounded=0;orthogonalLoop=1;jettySize=auto;html=1;entryX=0.5;entryY=1;entryDx=0;entryDy=0;" parent="1" source="x86Q3FWgldTjahKJCCAu-18" target="x86Q3FWgldTjahKJCCAu-20" edge="1">
          <mxGeometry relative="1" as="geometry" />
        </mxCell>
        <mxCell id="x86Q3FWgldTjahKJCCAu-18" value="&lt;div&gt;Entra un nuevo pedido&lt;/div&gt;" style="rhombus;whiteSpace=wrap;html=1;" parent="1" vertex="1">
          <mxGeometry x="410" y="440" width="80" height="80" as="geometry" />
        </mxCell>
        <mxCell id="x86Q3FWgldTjahKJCCAu-23" style="edgeStyle=orthogonalEdgeStyle;rounded=0;orthogonalLoop=1;jettySize=auto;html=1;" parent="1" source="x86Q3FWgldTjahKJCCAu-20" target="x86Q3FWgldTjahKJCCAu-22" edge="1">
          <mxGeometry relative="1" as="geometry" />
        </mxCell>
        <mxCell id="x86Q3FWgldTjahKJCCAu-20" value="Gestión de estado (procesando, preparación, enviado, entregado, finalizado)" style="rounded=1;whiteSpace=wrap;html=1;" parent="1" vertex="1">
          <mxGeometry x="390" y="350" width="120" height="60" as="geometry" />
        </mxCell>
        <mxCell id="x86Q3FWgldTjahKJCCAu-24" style="edgeStyle=orthogonalEdgeStyle;rounded=0;orthogonalLoop=1;jettySize=auto;html=1;entryX=1;entryY=0.25;entryDx=0;entryDy=0;" parent="1" source="x86Q3FWgldTjahKJCCAu-22" target="x86Q3FWgldTjahKJCCAu-1" edge="1">
          <mxGeometry relative="1" as="geometry">
            <Array as="points">
              <mxPoint x="530" y="565" />
            </Array>
          </mxGeometry>
        </mxCell>
        <mxCell id="x86Q3FWgldTjahKJCCAu-22" value="&lt;div&gt;Actualiza cada estado de pedido&lt;/div&gt;" style="rhombus;whiteSpace=wrap;html=1;" parent="1" vertex="1">
          <mxGeometry x="520" y="440" width="80" height="80" as="geometry" />
        </mxCell>
        <mxCell id="x86Q3FWgldTjahKJCCAu-29" style="edgeStyle=orthogonalEdgeStyle;rounded=0;orthogonalLoop=1;jettySize=auto;html=1;" parent="1" source="x86Q3FWgldTjahKJCCAu-25" target="x86Q3FWgldTjahKJCCAu-27" edge="1">
          <mxGeometry relative="1" as="geometry" />
        </mxCell>
        <mxCell id="x86Q3FWgldTjahKJCCAu-25" value="Ocurre actualización de estado" style="rhombus;whiteSpace=wrap;html=1;" parent="1" vertex="1">
          <mxGeometry x="300" y="600" width="80" height="80" as="geometry" />
        </mxCell>
        <mxCell id="x86Q3FWgldTjahKJCCAu-27" value="Envio correo electronico del estado de pedido (Protocolo SMTP)" style="rounded=1;whiteSpace=wrap;html=1;" parent="1" vertex="1">
          <mxGeometry x="130" y="610" width="120" height="60" as="geometry" />
        </mxCell>
        <mxCell id="FvoFYTsQDCeCLGq3rjTK-4" style="edgeStyle=orthogonalEdgeStyle;rounded=0;orthogonalLoop=1;jettySize=auto;html=1;" edge="1" parent="1" source="x86Q3FWgldTjahKJCCAu-32" target="FvoFYTsQDCeCLGq3rjTK-1">
          <mxGeometry relative="1" as="geometry" />
        </mxCell>
        <mxCell id="x86Q3FWgldTjahKJCCAu-32" value="Inyección: Data Set" style="shape=cylinder3;whiteSpace=wrap;html=1;boundedLbl=1;backgroundOutline=1;size=15;" parent="1" vertex="1">
          <mxGeometry x="380" y="220" width="60" height="80" as="geometry" />
        </mxCell>
        <mxCell id="x86Q3FWgldTjahKJCCAu-35" value="&lt;div&gt;ELASTICSEARCH&lt;/div&gt;" style="ellipse;shape=cloud;whiteSpace=wrap;html=1;" parent="1" vertex="1">
          <mxGeometry x="650" y="580" width="120" height="80" as="geometry" />
        </mxCell>
        <mxCell id="x86Q3FWgldTjahKJCCAu-39" style="edgeStyle=orthogonalEdgeStyle;rounded=0;orthogonalLoop=1;jettySize=auto;html=1;" parent="1" source="x86Q3FWgldTjahKJCCAu-36" target="x86Q3FWgldTjahKJCCAu-35" edge="1">
          <mxGeometry relative="1" as="geometry" />
        </mxCell>
        <mxCell id="x86Q3FWgldTjahKJCCAu-36" value="Métricas" style="rhombus;whiteSpace=wrap;html=1;" parent="1" vertex="1">
          <mxGeometry x="530" y="580" width="80" height="80" as="geometry" />
        </mxCell>
        <mxCell id="x86Q3FWgldTjahKJCCAu-42" style="edgeStyle=orthogonalEdgeStyle;rounded=0;orthogonalLoop=1;jettySize=auto;html=1;" parent="1" source="x86Q3FWgldTjahKJCCAu-40" target="x86Q3FWgldTjahKJCCAu-41" edge="1">
          <mxGeometry relative="1" as="geometry" />
        </mxCell>
        <mxCell id="x86Q3FWgldTjahKJCCAu-40" value="Cliente" style="rounded=1;whiteSpace=wrap;html=1;" parent="1" vertex="1">
          <mxGeometry x="30" y="530" width="120" height="60" as="geometry" />
        </mxCell>
        <mxCell id="x86Q3FWgldTjahKJCCAu-41" value="Acceder a sus datos" style="rhombus;whiteSpace=wrap;html=1;" parent="1" vertex="1">
          <mxGeometry x="210" y="520" width="80" height="80" as="geometry" />
        </mxCell>
        <mxCell id="FvoFYTsQDCeCLGq3rjTK-1" value="&lt;div&gt;Generador de tráfico&lt;/div&gt;&lt;div&gt;.py&lt;br&gt;&lt;/div&gt;" style="rounded=1;whiteSpace=wrap;html=1;" vertex="1" parent="1">
          <mxGeometry x="350" y="120" width="120" height="60" as="geometry" />
        </mxCell>
        <mxCell id="FvoFYTsQDCeCLGq3rjTK-2" style="edgeStyle=orthogonalEdgeStyle;rounded=0;orthogonalLoop=1;jettySize=auto;html=1;entryX=0.488;entryY=0.088;entryDx=0;entryDy=0;entryPerimeter=0;" edge="1" parent="1" source="FvoFYTsQDCeCLGq3rjTK-1" target="x86Q3FWgldTjahKJCCAu-3">
          <mxGeometry relative="1" as="geometry">
            <Array as="points">
              <mxPoint x="219" y="150" />
            </Array>
          </mxGeometry>
        </mxCell>
        <mxCell id="FvoFYTsQDCeCLGq3rjTK-3" value="" style="shape=image;verticalLabelPosition=bottom;labelBackgroundColor=default;verticalAlign=top;aspect=fixed;imageAspect=0;image=https://upload.wikimedia.org/wikipedia/commons/thumb/c/c3/Python-logo-notext.svg/1869px-Python-logo-notext.svg.png;" vertex="1" parent="1">
          <mxGeometry x="390" y="90" width="46.65" height="51.17" as="geometry" />
        </mxCell>
      </root>
    </mxGraphModel>
  </diagram>
</mxfile>
